<?xml version="1.0" encoding="utf-8"?><svg viewBox="0 0 2000 1024" xmlns="http://www.w3.org/2000/svg" xmlns:xlink="http://www.w3.org/1999/xlink"><style>:root>svg{display:none}:root>svg:target{display:block}</style><svg viewBox="0 0 1570 1024" id="burger" xmlns="http://www.w3.org/2000/svg"><path d="M1041 1024H17V853.333h1024V1024zm512-426.667H17V426.666h1536v170.667zm-512-426.666H17V0h1024v170.667z"/></svg><svg viewBox="0 0 23 30" fill="none" id="jsymbol" xmlns="http://www.w3.org/2000/svg"><path d="M.369 0v9.35H1.98V1.611h19.361v17.097a9.68 9.68 0 0 1-13.386 8.945 9.683 9.683 0 0 1-5.976-8.945v-1.34H8.05v1.34a3.608 3.608 0 1 0 7.217 0V7.684H8.051V9.35h5.552v9.358a1.943 1.943 0 0 1-3.886 0v-3.007H.368v3.007a11.292 11.292 0 0 0 22.584 0V0H.37Z" fill="#231D4F"/><path d="M11.662 23.704a5.002 5.002 0 0 1-4.998-4.997H5a6.661 6.661 0 0 0 13.322 0V4.63H3.056v4.72h1.663V6.292h11.937v12.413a5 5 0 0 1-4.994 4.998Z" fill="#BB6BD9"/></svg><svg viewBox="0 0 5427 1024" id="logo" xmlns="http://www.w3.org/2000/svg"><path d="M415.499 924.237c-29.844 43.324-65.948 72.206-108.309 86.647-41.398 13.482-87.129 16.37-137.192 8.665-50.063-6.736-102.051-19.733-155.965-38.991l47.656-168.962c30.808 12.517 61.134 21.662 90.98 27.438 30.808 4.817 57.765 5.297 80.871 1.445 33.697-4.812 54.395-26.953 62.097-66.43 7.702-39.471 11.553-91.939 11.553-157.409V5.779h168.962V616.64c0 69.318-4.333 129.492-12.997 180.515-8.665 51.029-24.55 93.388-47.656 127.083zM829.081 1023.882c-73.165-3.848-128.526-24.55-166.074-62.097-37.548-38.507-56.32-91.459-56.32-158.853 0-49.1 12.517-90.98 37.548-125.638 25.034-35.619 58.249-63.541 99.644-83.759 41.4-20.217 87.132-32.73 137.192-37.548 51.029-4.812 102.533-1.445 154.521 10.109v-44.768c0-30.805-12.512-52.949-37.548-66.427-25.029-13.479-55.836-19.737-92.423-18.774-35.619.962-71.722 8.183-108.309 21.662-35.619 12.515-64.501 30.807-86.647 54.874l-96.756-105.418c36.588-35.622 79.911-63.541 129.971-83.759 50.065-20.217 101.573-31.77 154.521-34.659 53.917-2.888 104.461 3.37 151.633 18.774 48.141 15.403 87.611 40.436 118.418 75.094 24.07 26.956 37.548 62.578 40.436 106.865s4.333 92.906 4.333 145.854v381.248h-176.183v-66.43c-29.841 27.923-63.056 47.656-99.644 59.209-36.583 10.593-72.686 15.405-108.309 14.441zm202.177-210.843V688.844c-100.125-7.7-169.922-1.445-209.398 18.774-38.507 20.217-57.765 51.508-57.765 93.868 0 26.958 9.15 46.696 27.438 59.209 19.258 11.553 42.844 17.329 70.762 17.329 28.882-.959 58.249-6.736 88.092-17.329 30.812-11.553 57.765-27.438 80.871-47.656zM1526.256 1003.663c-42.365-19.253-77.023-47.172-103.977-83.759-26.958-37.548-47.177-80.386-60.653-128.526-12.517-48.136-18.774-97.716-18.774-148.745 0-66.43 12.033-126.598 36.103-180.512 24.065-53.914 59.209-96.756 105.421-128.526 47.172-32.734 104.937-49.1 173.295-49.1 22.141 0 47.656 2.407 76.539 7.221 29.841 4.813 53.912 13.96 72.206 27.438V5.78h173.295v1010.884h-173.295v-57.765c-16.37 19.258-41.4 34.659-75.094 46.212-33.7 10.593-69.318 15.886-106.865 15.886-36.588.964-69.318-4.812-98.201-17.329zm280.161-189.179V482.339c-50.065-20.217-97.241-26.957-141.524-20.217-43.324 6.739-78.947 25.513-106.865 56.318-26.958 29.846-40.436 71.247-40.436 124.195 0 62.582 13.477 112.162 40.436 148.745 26.953 35.624 62.097 56.32 105.421 62.097 44.283 4.817 91.939-8.18 142.968-38.991zM3297.787 294.602l-245.501 722.058h-210.842l-151.633-486.669-150.188 486.669h-210.842l-246.945-722.058h194.957l155.965 531.434 167.519-531.434h180.515l167.519 529.991 154.521-529.991h194.957zM3563.609 1023.882c-73.17-3.848-128.526-24.55-166.074-62.097-37.548-38.507-56.32-91.459-56.32-158.853 0-49.1 12.512-90.98 37.548-125.638 25.029-35.619 58.244-63.541 99.644-83.759 41.395-20.217 87.127-32.73 137.192-37.548 51.024-4.812 102.533-1.445 154.521 10.109v-44.768c0-30.805-12.517-52.949-37.548-66.427-25.034-13.479-55.841-19.737-92.423-18.774-35.624.962-71.727 8.183-108.309 21.662-35.624 12.515-64.506 30.807-86.647 54.874l-96.756-105.418c36.583-35.622 79.906-63.541 129.971-83.759 50.06-20.217 101.568-31.77 154.521-34.659 53.912-2.888 104.456 3.37 151.633 18.774 48.136 15.403 87.606 40.436 118.418 75.094 24.065 26.956 37.548 62.578 40.436 106.865s4.333 92.906 4.333 145.854v381.248h-176.183v-66.43c-29.846 27.923-63.061 47.656-99.644 59.209-36.588 10.593-72.691 15.405-108.309 14.441zm202.177-210.843V688.844c-100.13-7.7-169.927-1.445-209.398 18.774-38.512 20.217-57.765 51.508-57.765 93.868 0 26.958 9.145 46.696 27.438 59.209 19.253 11.553 42.839 17.329 70.762 17.329 28.882-.959 58.244-6.736 88.092-17.329 30.806-11.553 57.765-27.438 80.871-47.656zM4265.113 1016.661h-173.295V5.777h173.295v1010.884zM4514.548 209.399c-29.841 0-54.877-10.109-75.094-30.327s-30.327-45.25-30.327-75.094c0-28.882 10.109-53.432 30.327-73.651S4484.707 0 4514.548 0c28.882 0 53.432 10.109 73.651 30.327s30.327 44.768 30.327 73.651c0 29.844-10.109 54.877-30.327 75.094s-44.768 30.327-73.651 30.327zm79.427 807.262h-158.853V294.603h158.853v722.058zM5412.967 1016.661h-173.295V594.977c0-39.471-7.685-68.834-23.106-88.089-14.441-20.217-32.751-33.697-54.877-40.436-21.197-6.739-41.885-10.109-62.102-10.109-19.253 0-41.879 3.37-67.874 10.109-25.029 6.739-47.172 20.217-66.43 40.436-19.253 19.256-28.882 48.618-28.882 88.089v421.684h-173.295V294.603h173.295v51.989c16.37-22.143 41.879-37.548 76.539-46.212 34.659-9.628 67.874-14.441 99.644-14.441 61.638 0 114.555 12.997 158.858 38.991 45.232 25.994 79.891 62.097 103.977 108.309 25.014 46.212 37.548 100.127 37.548 161.739v421.684z"/></svg><svg viewBox="0 0 1229 1024" id="tick" xmlns="http://www.w3.org/2000/svg"><path d="M1209.161 151.926 597.806 981.572a90.3 90.3 0 0 1-127.721 16.79L33.514 649.32c-38.524-30.829-44.762-87.053-13.933-125.577s87.053-44.762 125.576-13.933l364.048 291.256 556.166-754.799c18.231-27.367 50.042-42.497 82.774-39.385 32.743 3.113 61.124 23.966 73.877 54.28s7.813 65.183-12.861 90.764z"/></svg></svg>