<svg viewBox="0 0 23 30" fill="none" xmlns="http://www.w3.org/2000/svg">
<path d="M0.368982 0V9.3501H1.98001L1.98001 1.61103H21.3414V18.7084C21.3414 19.9798 21.091 21.2387 20.6044 22.4132C20.1179 23.5878 19.4048 24.655 18.5058 25.554C17.6069 26.4529 16.5396 27.166 15.3651 27.6526C14.1905 28.139 12.9316 28.3895 11.6603 28.3895C10.389 28.3895 9.13005 28.139 7.9555 27.6526C6.78094 27.166 5.7137 26.4529 4.81474 25.554C3.91578 24.655 3.20267 23.5878 2.71615 22.4132C2.22963 21.2387 1.97922 19.9798 1.97922 18.7084V17.3689H8.05041V18.7084C8.05041 19.6654 8.43057 20.5832 9.10726 21.2599C9.78392 21.9366 10.7017 22.3167 11.6587 22.3167C12.6157 22.3167 13.5335 21.9366 14.2101 21.2599C14.8868 20.5832 15.267 19.6654 15.267 18.7084V7.68355H8.0512V9.3501H13.6028V18.7084C13.6028 19.2237 13.3981 19.7178 13.0338 20.0822C12.6694 20.4465 12.1753 20.6512 11.66 20.6512C11.1448 20.6512 10.6506 20.4465 10.2862 20.0822C9.92191 19.7178 9.71722 19.2237 9.71722 18.7084V15.701H1.97895H0.36792V18.7076C0.36792 21.7025 1.55764 24.5747 3.67533 26.6924C5.79305 28.8103 8.66525 30 11.6602 30C14.655 30 17.5273 28.8103 19.645 26.6924C21.7627 24.5747 22.9524 21.7025 22.9524 18.7076V0H0.368982Z" fill="#231D4F"/>
<path d="M11.6623 23.7036C10.3373 23.7026 9.06684 23.1759 8.12973 22.2392C7.1926 21.3024 6.66538 20.0322 6.66376 18.7072H5.00013C5.00013 20.4738 5.70192 22.1681 6.95114 23.4173C8.20033 24.6665 9.89464 25.3683 11.6613 25.3683C13.4279 25.3683 15.1222 24.6665 16.3714 23.4173C17.6206 22.1681 18.3224 20.4738 18.3224 18.7072V4.62891H3.05555V9.34805H4.71917V6.29333H16.6564V18.7061C16.6556 20.0307 16.1292 21.3008 15.193 22.2377C14.2567 23.1747 12.9869 23.7019 11.6623 23.7036Z" fill="#BB6BD9"/>
</svg>
